<?xml version="1.0" encoding="UTF-8"?>
<svg xmlns="http://www.w3.org/2000/svg" xmlns:xlink="http://www.w3.org/1999/xlink" width="30px" height="30px" viewBox="0 0 30 30" version="1.1">
<g id="surface1">
<path style=" stroke:none;fill-rule:nonzero;fill:rgb(0%,0%,0%);fill-opacity:1;" d="M 14.65625 21.378906 C 14.53125 21.105469 14.277344 20.90625 13.964844 20.871094 C 13.703125 20.84375 13.445312 20.785156 13.203125 20.703125 C 13.09375 20.667969 12.988281 20.628906 12.894531 20.585938 L 13.054688 20.152344 C 13.164062 20.203125 13.28125 20.25 13.398438 20.289062 L 13.402344 20.292969 L 13.40625 20.292969 C 13.785156 20.417969 14.15625 20.480469 14.515625 20.480469 C 14.871094 20.480469 15.128906 20.433594 15.328125 20.332031 L 15.351562 20.316406 C 15.652344 20.144531 15.828125 19.847656 15.828125 19.503906 C 15.828125 19.121094 15.621094 18.800781 15.257812 18.628906 C 15.078125 18.542969 14.820312 18.457031 14.449219 18.363281 C 14.066406 18.269531 13.75 18.167969 13.5 18.0625 C 13.320312 17.980469 13.160156 17.847656 13.019531 17.660156 C 12.898438 17.496094 12.835938 17.242188 12.835938 16.914062 C 12.835938 16.519531 12.949219 16.191406 13.179688 15.914062 C 13.382812 15.671875 13.671875 15.507812 14.0625 15.414062 C 14.351562 15.347656 14.578125 15.140625 14.679688 14.875 C 14.792969 15.144531 15.035156 15.34375 15.339844 15.394531 C 15.59375 15.433594 15.828125 15.496094 16.035156 15.585938 L 15.890625 16.007812 C 15.496094 15.847656 15.105469 15.769531 14.730469 15.769531 C 13.480469 15.769531 13.417969 16.628906 13.417969 16.804688 C 13.417969 17.175781 13.621094 17.492188 13.972656 17.664062 L 13.984375 17.667969 L 13.992188 17.675781 C 14.171875 17.753906 14.421875 17.832031 14.789062 17.914062 C 15.164062 18 15.480469 18.097656 15.726562 18.207031 L 15.730469 18.207031 L 15.738281 18.210938 C 15.921875 18.289062 16.078125 18.414062 16.21875 18.601562 L 16.222656 18.605469 C 16.34375 18.765625 16.40625 19.011719 16.40625 19.335938 C 16.40625 19.710938 16.300781 20.027344 16.074219 20.304688 C 15.882812 20.546875 15.609375 20.714844 15.246094 20.816406 C 14.96875 20.894531 14.75 21.109375 14.65625 21.378906 Z M 14.65625 21.378906 "/>
<path style=" stroke:none;fill-rule:nonzero;fill:rgb(0%,0%,0%);fill-opacity:1;" d="M 14.972656 22.5 L 14.371094 22.5 C 14.238281 22.5 14.128906 22.386719 14.128906 22.25 L 14.128906 21.75 C 14.128906 21.617188 14.027344 21.507812 13.898438 21.492188 C 13.59375 21.457031 13.300781 21.394531 13.015625 21.300781 C 12.738281 21.207031 12.5 21.09375 12.296875 20.96875 C 12.203125 20.910156 12.167969 20.789062 12.207031 20.683594 L 12.621094 19.558594 C 12.675781 19.40625 12.855469 19.347656 12.992188 19.425781 C 13.179688 19.53125 13.378906 19.625 13.59375 19.699219 C 13.914062 19.804688 14.21875 19.855469 14.515625 19.855469 C 14.765625 19.855469 14.945312 19.828125 15.054688 19.773438 C 15.164062 19.710938 15.21875 19.621094 15.21875 19.503906 C 15.21875 19.367188 15.144531 19.265625 15 19.195312 C 14.863281 19.128906 14.628906 19.054688 14.304688 18.972656 C 13.886719 18.867188 13.539062 18.753906 13.261719 18.636719 C 12.984375 18.511719 12.742188 18.3125 12.535156 18.042969 C 12.328125 17.761719 12.226562 17.386719 12.226562 16.914062 C 12.226562 16.367188 12.390625 15.898438 12.714844 15.507812 C 13.007812 15.164062 13.410156 14.929688 13.925781 14.804688 C 14.042969 14.777344 14.128906 14.675781 14.128906 14.554688 L 14.128906 14 C 14.128906 13.863281 14.238281 13.75 14.371094 13.75 L 14.972656 13.75 C 15.109375 13.75 15.21875 13.863281 15.21875 14 L 15.21875 14.523438 C 15.21875 14.648438 15.3125 14.753906 15.433594 14.773438 C 15.886719 14.847656 16.28125 14.984375 16.625 15.183594 C 16.71875 15.242188 16.757812 15.363281 16.722656 15.46875 L 16.335938 16.589844 C 16.285156 16.738281 16.113281 16.800781 15.976562 16.730469 C 15.542969 16.507812 15.125 16.394531 14.730469 16.394531 C 14.261719 16.394531 14.027344 16.53125 14.027344 16.804688 C 14.027344 16.933594 14.097656 17.03125 14.234375 17.101562 C 14.375 17.164062 14.605469 17.230469 14.921875 17.304688 C 15.335938 17.398438 15.683594 17.507812 15.964844 17.632812 C 16.25 17.75 16.492188 17.945312 16.699219 18.21875 C 16.910156 18.492188 17.015625 18.863281 17.015625 19.335938 C 17.015625 19.855469 16.859375 20.3125 16.546875 20.703125 C 16.273438 21.042969 15.894531 21.28125 15.410156 21.417969 C 15.296875 21.449219 15.21875 21.550781 15.21875 21.667969 L 15.21875 22.25 C 15.21875 22.386719 15.109375 22.5 14.972656 22.5 Z M 14.972656 22.5 "/>
<path style="fill:none;stroke-width:1.5;stroke-linecap:round;stroke-linejoin:round;stroke:rgb(0%,0%,0%);stroke-opacity:1;stroke-miterlimit:4;" d="M 9.59375 5 L 13.815625 5 C 14.896875 5 14.303125 6.6625 13.8625 7.678125 L 13.365625 8.84375 L 13.296875 9 C 13.76875 8.975 14.2375 9.109375 14.628125 9.38125 C 16.090625 10.75625 17.28125 12.409375 18.125 14.25 C 18.45625 14.93125 18.584375 15.696875 18.503125 16.45 C 18.4 18.375 16.896875 19.909375 15.01875 20 L 8.3875 20 C 6.509375 19.9125 5.003125 18.38125 4.9 16.45625 C 4.815625 15.7 4.946875 14.934375 5.275 14.25625 C 6.121875 12.4125 7.3125 10.75625 8.778125 9.38125 C 9.16875 9.109375 9.6375 8.975 10.109375 9 L 10.03125 8.81875 L 9.54375 7.678125 C 9.10625 6.6625 8.509375 5 9.59375 5 Z M 9.59375 5 " transform="matrix(1.25,0,0,1.25,0,0)"/>
<path style=" stroke:none;fill-rule:nonzero;fill:rgb(0%,0%,0%);fill-opacity:1;" d="M 16.621094 12.1875 C 17.140625 12.1875 17.558594 11.769531 17.558594 11.25 C 17.558594 10.730469 17.140625 10.3125 16.621094 10.3125 Z M 12.636719 10.3125 C 12.117188 10.3125 11.699219 10.730469 11.699219 11.25 C 11.699219 11.769531 12.117188 12.1875 12.636719 12.1875 Z M 19.972656 10.8125 C 20.421875 10.554688 20.574219 9.980469 20.316406 9.53125 C 20.058594 9.082031 19.484375 8.929688 19.035156 9.1875 Z M 16.707031 11.054688 L 16.886719 11.972656 L 16.890625 11.972656 Z M 12.539062 11.023438 L 12.730469 10.105469 L 12.722656 10.105469 Z M 10.207031 9.179688 C 9.753906 8.929688 9.183594 9.09375 8.933594 9.546875 C 8.683594 10 8.847656 10.570312 9.300781 10.820312 Z M 16.621094 10.3125 L 12.636719 10.3125 L 12.636719 12.1875 L 16.621094 12.1875 Z M 19.035156 9.1875 C 18.253906 9.640625 17.402344 9.957031 16.523438 10.132812 L 16.890625 11.972656 C 17.972656 11.757812 19.011719 11.363281 19.972656 10.8125 Z M 16.527344 10.132812 C 15.273438 10.378906 13.984375 10.371094 12.730469 10.105469 L 12.34375 11.941406 C 13.839844 12.257812 15.386719 12.269531 16.886719 11.972656 Z M 12.722656 10.105469 C 11.84375 9.925781 10.996094 9.617188 10.207031 9.179688 L 9.300781 10.820312 C 10.257812 11.347656 11.285156 11.726562 12.351562 11.941406 Z M 12.722656 10.105469 "/>
</g>
</svg>
