<?xml version="1.0" encoding="UTF-8"?>
<svg xmlns="http://www.w3.org/2000/svg" xmlns:xlink="http://www.w3.org/1999/xlink" width="30px" height="30px" viewBox="0 0 30 30" version="1.1">
<g id="surface1">
<path style=" stroke:none;fill-rule:nonzero;fill:rgb(0%,0%,0%);fill-opacity:1;" d="M 15 2.5 C 8.125 2.5 2.5 8.125 2.5 15 C 2.5 21.875 8.125 27.5 15 27.5 C 21.875 27.5 27.5 21.875 27.5 15 C 27.5 8.125 21.875 2.5 15 2.5 Z M 15 25 C 9.375 25 5 20.625 5 15 C 5 9.375 9.375 5 15 5 C 20.625 5 25 9.375 25 15 C 25 20.625 20.625 25 15 25 Z M 15 25 "/>
<path style=" stroke:none;fill-rule:nonzero;fill:rgb(0%,0%,0%);fill-opacity:1;" d="M 12.25 21 L 7.625 16.5 L 9.375 14.625 L 12.25 17.5 L 19.375 9.875 L 21.25 11.625 Z M 12.25 21 "/>
</g>
</svg>
