<?xml version="1.0" encoding="UTF-8"?>
<svg xmlns="http://www.w3.org/2000/svg" xmlns:xlink="http://www.w3.org/1999/xlink" width="30px" height="30px" viewBox="0 0 30 30" version="1.1">
<g id="surface1">
<path style=" stroke:none;fill-rule:nonzero;fill:rgb(5.882353%,5.882353%,5.882353%);fill-opacity:1;" d="M 28.75 15 C 28.75 22.59375 22.59375 28.75 15 28.75 C 7.40625 28.75 1.25 22.59375 1.25 15 C 1.25 7.40625 7.40625 1.25 15 1.25 C 22.59375 1.25 28.75 7.40625 28.75 15 Z M 3.757812 15 C 3.757812 21.207031 8.792969 26.242188 15 26.242188 C 21.207031 26.242188 26.242188 21.207031 26.242188 15 C 26.242188 8.792969 21.207031 3.757812 15 3.757812 C 8.792969 3.757812 3.757812 8.792969 3.757812 15 Z M 3.757812 15 "/>
<path style=" stroke:none;fill-rule:nonzero;fill:rgb(5.882353%,5.882353%,5.882353%);fill-opacity:1;" d="M 15 6.25 C 14.308594 6.25 13.75 6.808594 13.75 7.5 L 13.75 15.582031 C 13.75 15.582031 13.75 15.910156 13.910156 16.15625 C 14.015625 16.363281 14.179688 16.542969 14.398438 16.667969 L 20.171875 20.003906 C 20.769531 20.347656 21.535156 20.144531 21.878906 19.542969 C 22.222656 18.945312 22.019531 18.183594 21.421875 17.835938 L 16.25 14.851562 L 16.25 7.5 C 16.25 6.808594 15.691406 6.25 15 6.25 Z M 15 6.25 "/>
</g>
</svg>
